<?xml version="1.0" standalone="no"?>
<!DOCTYPE svg PUBLIC "-//W3C//DTD SVG 20010904//EN"
 "http://www.w3.org/TR/2001/REC-SVG-20010904/DTD/svg10.dtd">
<svg version="1.0" xmlns="http://www.w3.org/2000/svg"
 width="260.000000pt" height="260.000000pt" viewBox="0 0 260.000000 260.000000"
 preserveAspectRatio="xMidYMid meet">
<metadata>
Created by potrace 1.11, written by Peter Selinger 2001-2013
</metadata>
<g transform="translate(0.000000,260.000000) scale(0.100000,-0.100000)"
fill="#000000" stroke="none">
<path d="M1158 2416 c-169 -59 -298 -217 -310 -381 l-3 -40 460 0 c402 0 460
2 460 15 1 35 -28 136 -51 183 -52 101 -161 193 -272 227 -83 26 -202 24 -284
-4z"/>
<path d="M350 2228 c-69 -89 -137 -178 -153 -199 l-27 -37 305 0 c172 1 305 5
305 10 0 7 -54 78 -258 337 -15 19 -28 38 -30 42 -2 5 -7 9 -10 9 -4 -1 -63
-73 -132 -162z"/>
<path d="M2034 2268 c-88 -111 -185 -235 -206 -264 -6 -8 77 -11 297 -12 193
0 305 3 305 10 0 5 -66 94 -147 196 -80 103 -147 189 -149 190 -1 2 -46 -52
-100 -120z"/>
<path d="M160 1661 l0 -276 315 0 315 0 -2 275 -3 275 -312 1 -313 1 0 -276z"/>
<path d="M849 1936 c-1 -1 -2 -271 -3 -601 l-1 -600 -340 -1 -340 -1 -3 -84
-3 -84 491 1 c270 1 493 4 496 7 3 3 6 153 7 334 2 364 3 367 69 415 25 18 46
23 90 23 61 0 94 -17 132 -69 20 -26 21 -42 24 -367 1 -186 6 -339 10 -340 11
0 881 0 930 0 l42 1 0 80 c0 57 -4 80 -12 80 -7 1 -161 2 -343 3 l-330 2 0
600 0 600 -457 1 c-252 0 -459 0 -459 0z m541 -141 c16 -8 41 -36 56 -61 43
-74 25 -153 -50 -208 -41 -31 -130 -29 -175 3 -77 55 -88 161 -23 233 52 57
121 69 192 33z"/>
<path d="M1820 1661 l0 -276 313 0 312 0 3 276 2 276 -315 0 -315 0 0 -276z"/>
<path d="M160 1060 c0 -209 3 -270 13 -271 15 0 599 0 610 0 4 1 7 123 7 271
l0 270 -315 0 -315 0 0 -270z"/>
<path d="M1820 1060 c0 -148 3 -270 8 -271 10 0 595 0 610 0 9 1 12 62 12 271
l0 270 -315 0 -315 0 0 -270z"/>
<path d="M183 512 c-22 -3 -23 -8 -23 -80 l0 -77 1118 2 c614 1 1130 2 1145 2
l28 1 -3 76 -3 77 -1120 1 c-616 0 -1130 0 -1142 -2z"/>
<path d="M170 302 c-6 -2 -10 -37 -10 -78 l0 -74 1145 0 1145 0 0 75 c0 53 -4
75 -12 76 -43 3 -2260 3 -2268 1z"/>
</g>
</svg>
